<svg version="1.1" xmlns="http://www.w3.org/2000/svg" xmlns:xlink="http://www.w3.org/1999/xlink" width="576px" height="512px" viewBox="0,0,256,227.55469"><g fill="#f64060" fill-rule="nonzero" stroke="none" stroke-width="1" stroke-linecap="butt" stroke-linejoin="miter" stroke-miterlimit="10" stroke-dasharray="" stroke-dashoffset="0" font-family="none" font-weight="none" font-size="none" text-anchor="none" style="mix-blend-mode: normal"><g transform="translate(-0.04103,-0.0171) scale(0.44444,0.44444)"><path d="M80,96c26.5,0 48,-21.5 48,-48c0,-26.5 -21.5,-48 -48,-48c-26.5,0 -48,21.5 -48,48c0,26.5 21.5,48 48,48zM64,128c-35.3,0 -64,28.7 -64,64v128c0,17.7 14.3,32 32,32c9.8,0 18.5,-4.4 24.4,-11.2l24,144.5c2.9,17.4 19.4,29.2 36.8,26.3c17.4,-2.9 29.2,-19.4 26.3,-36.8l-20.4,-122.8h15.7l30,134.9c3.8,17.3 20.9,28.1 38.2,24.3c17.3,-3.8 28.1,-20.9 24.3,-38.2l-57.3,-258l116.3,53.8c0.5,0.3 1.1,0.5 1.6,0.7c8.6,3.6 18,3.1 25.9,-0.7c3.4,-1.6 6.6,-3.9 9.3,-6.7c3.1,-3.2 5.5,-7 7.1,-11.4c0.1,-0.3 0.2,-0.7 0.3,-1l2.5,-7.5c5.7,-17.1 18.3,-30.9 34.7,-38.2l8,-3.5c1,-0.4 1.9,-0.8 2.9,-1.2l-16.9,63.5c-5.6,21.1 -0.1,43.6 14.7,59.7l70.7,77.1l22,88.1c4.3,17.1 21.7,27.6 38.8,23.3c17.1,-4.3 27.6,-21.7 23.3,-38.8l-23,-92.1c-1.9,-7.8 -5.8,-14.9 -11.2,-20.8l-49.5,-54l19.3,-65.5l9.6,23c4.4,10.6 12.5,19.3 22.8,24.5l26.7,13.3c15.8,7.9 35,1.5 42.9,-14.3c7.9,-15.8 1.5,-35 -14.3,-42.9l-21.5,-10.7l-15.3,-36.8c-17.2,-41.1 -57.4,-67.9 -102,-67.9c-22.8,0 -45.3,4.8 -66.1,14l-8,3.5c-24.4,10.9 -44.6,29 -58.1,51.6l-130.2,-60.2c-12.6,-5.9 -26.4,-8.9 -40.3,-8.9zM464,96c26.5,0 48,-21.5 48,-48c0,-26.5 -21.5,-48 -48,-48c-26.5,0 -48,21.5 -48,48c0,26.5 21.5,48 48,48zM349.7,335.6l-25,62.4l-59.4,59.4c-12.5,12.5 -12.5,32.8 0,45.3c12.5,12.5 32.8,12.5 45.3,0l61.7,-61.7c4.6,-4.6 8.2,-10.1 10.6,-16.1l14.5,-36.2l-40.7,-44.4c-2.5,-2.7 -4.8,-5.6 -7,-8.6z"></path></g></g></svg>